<svg xmlns="http://www.w3.org/2000/svg" width="1180" height="680" viewBox="0 0 1180 680">
<rect x="0" y="0" width="100%" height="100%" fill="white"/>
<text x="590.0" y="35.0" font-size="22" text-anchor="middle" fill="#222">Ahorro 舊資料支出前 15 類別</text>
<rect x="280" y="70" width="36.8" height="28" fill="#4c78a8"/>
<text x="268.0" y="90.2" font-size="13" text-anchor="end" fill="#222">門票</text>
<text x="324.8" y="90.2" font-size="12" text-anchor="start" fill="#222">4,246</text>
<rect x="280" y="108" width="38.9" height="28" fill="#4c78a8"/>
<text x="268.0" y="128.2" font-size="13" text-anchor="end" fill="#222">type115</text>
<text x="326.9" y="128.2" font-size="12" text-anchor="start" fill="#222">4,491</text>
<rect x="280" y="146" width="41.0" height="28" fill="#4c78a8"/>
<text x="268.0" y="166.2" font-size="13" text-anchor="end" fill="#222">type119</text>
<text x="329.0" y="166.2" font-size="12" text-anchor="start" fill="#222">4,734</text>
<rect x="280" y="184" width="49.9" height="28" fill="#4c78a8"/>
<text x="268.0" y="204.2" font-size="13" text-anchor="end" fill="#222">宵夜</text>
<text x="337.9" y="204.2" font-size="12" text-anchor="start" fill="#222">5,759</text>
<rect x="280" y="222" width="54.9" height="28" fill="#4c78a8"/>
<text x="268.0" y="242.2" font-size="13" text-anchor="end" fill="#222">type109</text>
<text x="342.9" y="242.2" font-size="12" text-anchor="start" fill="#222">6,329</text>
<rect x="280" y="260" width="60.1" height="28" fill="#4c78a8"/>
<text x="268.0" y="280.2" font-size="13" text-anchor="end" fill="#222">書</text>
<text x="348.1" y="280.2" font-size="12" text-anchor="start" fill="#222">6,928</text>
<rect x="280" y="298" width="96.0" height="28" fill="#4c78a8"/>
<text x="268.0" y="318.2" font-size="13" text-anchor="end" fill="#222">飲料</text>
<text x="384.0" y="318.2" font-size="12" text-anchor="start" fill="#222">11,072</text>
<rect x="280" y="336" width="144.1" height="28" fill="#4c78a8"/>
<text x="268.0" y="356.2" font-size="13" text-anchor="end" fill="#222">日常用品</text>
<text x="432.1" y="356.2" font-size="12" text-anchor="start" fill="#222">16,628</text>
<rect x="280" y="374" width="156.0" height="28" fill="#4c78a8"/>
<text x="268.0" y="394.2" font-size="13" text-anchor="end" fill="#222">早餐</text>
<text x="444.0" y="394.2" font-size="12" text-anchor="start" fill="#222">17,994</text>
<rect x="280" y="412" width="317.6" height="28" fill="#4c78a8"/>
<text x="268.0" y="432.2" font-size="13" text-anchor="end" fill="#222">type111</text>
<text x="605.6" y="432.2" font-size="12" text-anchor="start" fill="#222">36,635</text>
<rect x="280" y="450" width="524.4" height="28" fill="#4c78a8"/>
<text x="268.0" y="470.2" font-size="13" text-anchor="end" fill="#222">交通</text>
<text x="812.4" y="470.2" font-size="12" text-anchor="start" fill="#222">60,490</text>
<rect x="280" y="488" width="593.2" height="28" fill="#4c78a8"/>
<text x="268.0" y="508.2" font-size="13" text-anchor="end" fill="#222">type107</text>
<text x="881.2" y="508.2" font-size="12" text-anchor="start" fill="#222">68,426</text>
<rect x="280" y="526" width="651.8" height="28" fill="#4c78a8"/>
<text x="268.0" y="546.2" font-size="13" text-anchor="end" fill="#222">午餐</text>
<text x="939.8" y="546.2" font-size="12" text-anchor="start" fill="#222">75,190</text>
<rect x="280" y="564" width="750.3" height="28" fill="#4c78a8"/>
<text x="268.0" y="584.2" font-size="13" text-anchor="end" fill="#222">type110</text>
<text x="1038.3" y="584.2" font-size="12" text-anchor="start" fill="#222">86,556</text>
<rect x="280" y="602" width="830.0" height="28" fill="#4c78a8"/>
<text x="268.0" y="622.2" font-size="13" text-anchor="end" fill="#222">晚餐</text>
<text x="1118.0" y="622.2" font-size="12" text-anchor="start" fill="#222">95,747</text>
<line x1="280" y1="66" x2="280" y2="640" stroke="#333"/>
</svg>