<svg xmlns="http://www.w3.org/2000/svg" width="1280" height="680" viewBox="0 0 1280 680">
<rect x="0" y="0" width="100%" height="100%" fill="white"/>
<text x="640.0" y="30.0" font-size="22" text-anchor="middle" fill="#222">Ahorro 舊資料每月收支趨勢</text>
<line x1="90" y1="590.0" x2="1240" y2="590.0" stroke="#e6e6e6" stroke-width="1"/>
<text x="80.0" y="594.0" font-size="11" text-anchor="end" fill="#222">-37,405</text>
<line x1="90" y1="501.7" x2="1240" y2="501.7" stroke="#e6e6e6" stroke-width="1"/>
<text x="80.0" y="505.7" font-size="11" text-anchor="end" fill="#222">-24,040</text>
<line x1="90" y1="413.3" x2="1240" y2="413.3" stroke="#e6e6e6" stroke-width="1"/>
<text x="80.0" y="417.3" font-size="11" text-anchor="end" fill="#222">-10,675</text>
<line x1="90" y1="325.0" x2="1240" y2="325.0" stroke="#e6e6e6" stroke-width="1"/>
<text x="80.0" y="329.0" font-size="11" text-anchor="end" fill="#222">2,690</text>
<line x1="90" y1="236.7" x2="1240" y2="236.7" stroke="#e6e6e6" stroke-width="1"/>
<text x="80.0" y="240.7" font-size="11" text-anchor="end" fill="#222">16,055</text>
<line x1="90" y1="148.3" x2="1240" y2="148.3" stroke="#e6e6e6" stroke-width="1"/>
<text x="80.0" y="152.3" font-size="11" text-anchor="end" fill="#222">29,420</text>
<line x1="90" y1="60.0" x2="1240" y2="60.0" stroke="#e6e6e6" stroke-width="1"/>
<text x="80.0" y="64.0" font-size="11" text-anchor="end" fill="#222">42,785</text>
<rect x="90" y="60" width="1150" height="530" fill="none" stroke="#444" stroke-width="1"/>
<line x1="90.0" y1="590" x2="90.0" y2="596" stroke="#666"/>
<text x="90.0" y="612.0" font-size="11" text-anchor="middle" fill="#222">2015-07</text>
<line x1="190.0" y1="590" x2="190.0" y2="596" stroke="#666"/>
<text x="190.0" y="612.0" font-size="11" text-anchor="middle" fill="#222">2015-11</text>
<line x1="290.0" y1="590" x2="290.0" y2="596" stroke="#666"/>
<text x="290.0" y="612.0" font-size="11" text-anchor="middle" fill="#222">2016-03</text>
<line x1="390.0" y1="590" x2="390.0" y2="596" stroke="#666"/>
<text x="390.0" y="612.0" font-size="11" text-anchor="middle" fill="#222">2016-07</text>
<line x1="490.0" y1="590" x2="490.0" y2="596" stroke="#666"/>
<text x="490.0" y="612.0" font-size="11" text-anchor="middle" fill="#222">2016-11</text>
<line x1="590.0" y1="590" x2="590.0" y2="596" stroke="#666"/>
<text x="590.0" y="612.0" font-size="11" text-anchor="middle" fill="#222">2017-03</text>
<line x1="690.0" y1="590" x2="690.0" y2="596" stroke="#666"/>
<text x="690.0" y="612.0" font-size="11" text-anchor="middle" fill="#222">2017-07</text>
<line x1="790.0" y1="590" x2="790.0" y2="596" stroke="#666"/>
<text x="790.0" y="612.0" font-size="11" text-anchor="middle" fill="#222">2017-11</text>
<line x1="890.0" y1="590" x2="890.0" y2="596" stroke="#666"/>
<text x="890.0" y="612.0" font-size="11" text-anchor="middle" fill="#222">2018-03</text>
<line x1="990.0" y1="590" x2="990.0" y2="596" stroke="#666"/>
<text x="990.0" y="612.0" font-size="11" text-anchor="middle" fill="#222">2018-07</text>
<line x1="1090.0" y1="590" x2="1090.0" y2="596" stroke="#666"/>
<text x="1090.0" y="612.0" font-size="11" text-anchor="middle" fill="#222">2018-11</text>
<line x1="1190.0" y1="590" x2="1190.0" y2="596" stroke="#666"/>
<text x="1190.0" y="612.0" font-size="11" text-anchor="middle" fill="#222">2019-03</text>
<line x1="1240.0" y1="590" x2="1240.0" y2="596" stroke="#666"/>
<text x="1240.0" y="612.0" font-size="11" text-anchor="middle" fill="#222">2019-05</text>
<polyline fill="none" stroke="#2a9d8f" stroke-width="2.5" points="90.0,342.8 115.0,342.8 140.0,342.8 165.0,342.8 190.0,342.8 215.0,342.8 240.0,342.8 265.0,342.8 290.0,342.8 315.0,342.8 340.0,342.8 365.0,341.2 390.0,342.8 415.0,206.6 440.0,206.6 465.0,309.7 490.0,309.7 515.0,309.4 540.0,309.7 565.0,308.4 590.0,306.2 615.0,309.7 640.0,276.7 665.0,276.7 690.0,237.0 715.0,237.0 740.0,237.0 765.0,236.7 790.0,236.4 815.0,237.0 840.0,237.0 865.0,276.7 890.0,276.7 915.0,276.6 940.0,276.7 965.0,276.7 990.0,276.7 1015.0,231.0 1040.0,237.0 1065.0,342.8 1090.0,342.8 1115.0,342.8 1140.0,341.5 1165.0,341.5 1190.0,342.8 1215.0,93.1 1240.0,60.0"/>
<line x1="90" y1="35" x2="110" y2="35" stroke="#2a9d8f" stroke-width="3"/>
<text x="116.0" y="39.0" font-size="13" text-anchor="start" fill="#222">收入</text>
<polyline fill="none" stroke="#e76f51" stroke-width="2.5" points="90.0,331.2 115.0,338.5 140.0,306.2 165.0,293.9 190.0,268.3 215.0,300.8 240.0,307.2 265.0,317.2 290.0,291.5 315.0,296.9 340.0,95.6 365.0,307.6 390.0,231.1 415.0,237.9 440.0,289.3 465.0,291.5 490.0,304.2 515.0,299.1 540.0,301.4 565.0,300.3 590.0,223.3 615.0,272.3 640.0,294.7 665.0,278.6 690.0,275.7 715.0,269.1 740.0,283.6 765.0,288.5 790.0,285.6 815.0,129.4 840.0,276.6 865.0,285.0 890.0,284.2 915.0,112.2 940.0,250.6 965.0,269.7 990.0,263.7 1015.0,277.3 1040.0,320.2 1065.0,336.9 1090.0,311.9 1115.0,276.3 1140.0,337.9 1165.0,288.9 1190.0,132.1 1215.0,187.5 1240.0,218.3"/>
<line x1="210" y1="35" x2="230" y2="35" stroke="#e76f51" stroke-width="3"/>
<text x="236.0" y="39.0" font-size="13" text-anchor="start" fill="#222">支出</text>
<polyline fill="none" stroke="#264653" stroke-width="2.5" points="90.0,354.4 115.0,347.1 140.0,379.4 165.0,391.7 190.0,417.2 215.0,384.7 240.0,378.3 265.0,368.3 290.0,394.0 315.0,388.7 340.0,590.0 365.0,376.3 390.0,454.5 415.0,311.6 440.0,260.2 465.0,361.0 490.0,348.3 515.0,353.1 540.0,351.1 565.0,350.8 590.0,425.7 615.0,380.2 640.0,324.8 665.0,340.9 690.0,304.1 715.0,310.7 740.0,296.2 765.0,291.0 790.0,293.6 815.0,450.4 840.0,303.2 865.0,334.5 890.0,335.3 915.0,507.2 940.0,368.8 965.0,349.8 990.0,355.7 1015.0,296.5 1040.0,259.6 1065.0,348.6 1090.0,373.6 1115.0,409.2 1140.0,346.3 1165.0,395.3 1190.0,553.4 1215.0,248.4 1240.0,184.5"/>
<line x1="330" y1="35" x2="350" y2="35" stroke="#264653" stroke-width="3"/>
<text x="356.0" y="39.0" font-size="13" text-anchor="start" fill="#222">淨額</text>
</svg>