<svg xmlns="http://www.w3.org/2000/svg" width="1280" height="680" viewBox="0 0 1280 680">
<rect x="0" y="0" width="100%" height="100%" fill="white"/>
<text x="640.0" y="30.0" font-size="22" text-anchor="middle" fill="#222">Ahorro 舊資料每月交易筆數</text>
<line x1="90" y1="590.0" x2="1240" y2="590.0" stroke="#e6e6e6" stroke-width="1"/>
<text x="80.0" y="594.0" font-size="11" text-anchor="end" fill="#222">0</text>
<line x1="90" y1="501.7" x2="1240" y2="501.7" stroke="#e6e6e6" stroke-width="1"/>
<text x="80.0" y="505.7" font-size="11" text-anchor="end" fill="#222">21</text>
<line x1="90" y1="413.3" x2="1240" y2="413.3" stroke="#e6e6e6" stroke-width="1"/>
<text x="80.0" y="417.3" font-size="11" text-anchor="end" fill="#222">41</text>
<line x1="90" y1="325.0" x2="1240" y2="325.0" stroke="#e6e6e6" stroke-width="1"/>
<text x="80.0" y="329.0" font-size="11" text-anchor="end" fill="#222">62</text>
<line x1="90" y1="236.7" x2="1240" y2="236.7" stroke="#e6e6e6" stroke-width="1"/>
<text x="80.0" y="240.7" font-size="11" text-anchor="end" fill="#222">83</text>
<line x1="90" y1="148.3" x2="1240" y2="148.3" stroke="#e6e6e6" stroke-width="1"/>
<text x="80.0" y="152.3" font-size="11" text-anchor="end" fill="#222">103</text>
<line x1="90" y1="60.0" x2="1240" y2="60.0" stroke="#e6e6e6" stroke-width="1"/>
<text x="80.0" y="64.0" font-size="11" text-anchor="end" fill="#222">124</text>
<rect x="90" y="60" width="1150" height="530" fill="none" stroke="#444" stroke-width="1"/>
<line x1="90.0" y1="590" x2="90.0" y2="596" stroke="#666"/>
<text x="90.0" y="612.0" font-size="11" text-anchor="middle" fill="#222">2015-07</text>
<line x1="190.0" y1="590" x2="190.0" y2="596" stroke="#666"/>
<text x="190.0" y="612.0" font-size="11" text-anchor="middle" fill="#222">2015-11</text>
<line x1="290.0" y1="590" x2="290.0" y2="596" stroke="#666"/>
<text x="290.0" y="612.0" font-size="11" text-anchor="middle" fill="#222">2016-03</text>
<line x1="390.0" y1="590" x2="390.0" y2="596" stroke="#666"/>
<text x="390.0" y="612.0" font-size="11" text-anchor="middle" fill="#222">2016-07</text>
<line x1="490.0" y1="590" x2="490.0" y2="596" stroke="#666"/>
<text x="490.0" y="612.0" font-size="11" text-anchor="middle" fill="#222">2016-11</text>
<line x1="590.0" y1="590" x2="590.0" y2="596" stroke="#666"/>
<text x="590.0" y="612.0" font-size="11" text-anchor="middle" fill="#222">2017-03</text>
<line x1="690.0" y1="590" x2="690.0" y2="596" stroke="#666"/>
<text x="690.0" y="612.0" font-size="11" text-anchor="middle" fill="#222">2017-07</text>
<line x1="790.0" y1="590" x2="790.0" y2="596" stroke="#666"/>
<text x="790.0" y="612.0" font-size="11" text-anchor="middle" fill="#222">2017-11</text>
<line x1="890.0" y1="590" x2="890.0" y2="596" stroke="#666"/>
<text x="890.0" y="612.0" font-size="11" text-anchor="middle" fill="#222">2018-03</text>
<line x1="990.0" y1="590" x2="990.0" y2="596" stroke="#666"/>
<text x="990.0" y="612.0" font-size="11" text-anchor="middle" fill="#222">2018-07</text>
<line x1="1090.0" y1="590" x2="1090.0" y2="596" stroke="#666"/>
<text x="1090.0" y="612.0" font-size="11" text-anchor="middle" fill="#222">2018-11</text>
<line x1="1190.0" y1="590" x2="1190.0" y2="596" stroke="#666"/>
<text x="1190.0" y="612.0" font-size="11" text-anchor="middle" fill="#222">2019-03</text>
<line x1="1240.0" y1="590" x2="1240.0" y2="596" stroke="#666"/>
<text x="1240.0" y="612.0" font-size="11" text-anchor="middle" fill="#222">2019-05</text>
<polyline fill="none" stroke="#e76f51" stroke-width="2.5" points="90.0,551.5 115.0,585.7 140.0,423.3 165.0,286.5 190.0,260.9 215.0,256.6 240.0,363.5 265.0,444.7 290.0,290.8 315.0,329.3 340.0,278.0 365.0,389.1 390.0,337.8 415.0,346.4 440.0,303.6 465.0,222.4 490.0,265.2 515.0,252.3 540.0,427.6 565.0,337.8 590.0,188.2 615.0,256.6 640.0,269.4 665.0,145.5 690.0,166.9 715.0,149.8 740.0,218.1 765.0,222.4 790.0,145.5 815.0,222.4 840.0,141.2 865.0,235.2 890.0,196.8 915.0,60.0 940.0,115.6 965.0,145.5 990.0,98.5 1015.0,265.2 1040.0,504.5 1065.0,572.9 1090.0,568.6 1115.0,547.3 1140.0,564.4 1165.0,457.5 1190.0,77.1 1215.0,145.5 1240.0,243.8"/>
<line x1="90" y1="35" x2="110" y2="35" stroke="#e76f51" stroke-width="3"/>
<text x="116.0" y="39.0" font-size="13" text-anchor="start" fill="#222">支出</text>
<polyline fill="none" stroke="#2a9d8f" stroke-width="2.5" points="90.0,590.0 115.0,590.0 140.0,590.0 165.0,590.0 190.0,590.0 215.0,590.0 240.0,590.0 265.0,590.0 290.0,590.0 315.0,590.0 340.0,590.0 365.0,581.5 390.0,590.0 415.0,585.7 440.0,585.7 465.0,585.7 490.0,585.7 515.0,581.5 540.0,585.7 565.0,581.5 590.0,581.5 615.0,585.7 640.0,585.7 665.0,585.7 690.0,585.7 715.0,585.7 740.0,585.7 765.0,581.5 790.0,581.5 815.0,585.7 840.0,585.7 865.0,585.7 890.0,585.7 915.0,572.9 940.0,585.7 965.0,581.5 990.0,585.7 1015.0,572.9 1040.0,585.7 1065.0,590.0 1090.0,590.0 1115.0,590.0 1140.0,585.7 1165.0,585.7 1190.0,590.0 1215.0,577.2 1240.0,581.5"/>
<line x1="210" y1="35" x2="230" y2="35" stroke="#2a9d8f" stroke-width="3"/>
<text x="236.0" y="39.0" font-size="13" text-anchor="start" fill="#222">收入</text>
</svg>